<svg xmlns="http://www.w3.org/2000/svg" viewBox="0 0 100 100">
  <defs>
    <linearGradient id="grad1" x1="0%" y1="0%" x2="100%" y2="100%">
      <stop offset="0%" style="stop-color:#28a745;stop-opacity:1" />
      <stop offset="100%" style="stop-color:#20c997;stop-opacity:1" />
    </linearGradient>
  </defs>
  <rect width="100" height="100" rx="20" fill="url(#grad1)"/>
  <g fill="white" transform="translate(25, 25)">
    <!-- Store/Shop Icon -->
    <path d="M3 9a2 2 0 012-2h.93a2 2 0 001.664-.89l.812-1.22A2 2 0 0110.07 4h29.86a2 2 0 011.664.89l.812 1.22A2 2 0 0044.07 7H45a2 2 0 012 2v2a2 2 0 01-2 2v24a2 2 0 01-2 2H7a2 2 0 01-2-2V13a2 2 0 01-2-2V9z" stroke="white" stroke-width="3" fill="none"/>
    <rect x="10" y="15" width="30" height="20" rx="2" fill="white"/>
    <rect x="17" y="20" width="8" height="10" rx="1" fill="#28a745"/>
    <rect x="25" y="20" width="8" height="10" rx="1" fill="#28a745"/>
  </g>
</svg>
